<?xml version="1.0" encoding="UTF-8"?><svg id="_圖層_2" xmlns="http://www.w3.org/2000/svg" width="240.03mm" height="54.39mm" viewBox="0 0 680.39 154.18"><defs><style>.cls-1{fill:#ffffff;stroke-width:0px;}</style></defs><g id="Layer_1"><path class="cls-1" d="M342.35,2.6l-32.16,83.94h20.53l3.32-8.3h37.29l3.18,8.3h20.53L363.19,2.6h-20.84ZM339.34,63.9l13.28-34.72,13.29,34.72h-26.57Z"/><polygon class="cls-1" points="312.8 2.75 291.21 59.37 269.47 2.75 249.09 2.75 280.79 86.54 301.33 86.54 333.33 2.75 312.8 2.75"/><polygon class="cls-1" points="197.3 52.1 237.07 52.1 237.07 37.63 197.3 37.63 197.3 19.99 245.31 19.99 245.31 2.71 176.4 2.71 176.4 86.8 247.44 86.8 247.44 68.39 197.3 68.39 197.3 52.1"/><polygon class="cls-1" points="421.16 2.6 400.35 2.6 400.33 86.54 473.4 86.54 473.42 68.35 421.16 68.35 421.16 2.6"/><polygon class="cls-1" points="148.61 37.63 114.17 37.63 114.17 2.71 93.44 2.71 93.44 86.8 93.44 87.15 114.17 87.15 114.17 52.1 148.61 52.1 148.61 86.8 169.48 86.8 169.48 2.71 148.61 2.71 148.61 37.63"/><path class="cls-1" d="M44.07,21.07c10.26,0,18.95,6.71,21.92,15.98h21.7l-.12-.19C84.14,15.95,65.97,0,44.08,0,19.74,0,0,19.74,0,44.09s19.74,44.09,44.08,44.09c21.59,0,39.56-15.52,43.34-36.01l-21.93-.04c-3.2,8.87-11.46,14.98-21.43,14.98-12.71,0-23.02-10.3-23.02-23.01s10.31-23.02,23.02-23.02"/><rect class="cls-1" x="479.4" y="2.58" width="20.76" height="83.96"/><polygon class="cls-1" points="527.35 52.06 567.12 52.06 567.12 37.6 527.35 37.6 527.35 19.96 575.36 19.96 575.36 2.68 506.44 2.68 506.44 86.5 577.49 86.5 577.49 68.35 527.35 68.35 527.35 52.06"/><path class="cls-1" d="M665.29,27.52c0-13.73-11.13-24.91-24.86-24.91h-56.17v84.17h20.74v-34.65h14.61s12.99,1.51,14.8,25.97c.15,2.03.6,6.34,2.42,8.45h24.46c-1.81-2.11-2.26-6.42-2.41-8.45-1.81-24.46-14.79-25.97-14.79-25.97,12.98,0,21.24-13.05,21.24-24.61M632.25,37.42h-27.09v-17.55h26.92l-.02.04c4.86,0,8.79,3.93,8.79,8.79s-3.83,8.61-8.6,8.72"/><path class="cls-1" d="M676.21,83.2c-.04-.16-.05-.45-.05-.89v-.64c0-.67-.1-1.17-.28-1.49-.18-.33-.49-.58-.93-.76.53-.19.91-.49,1.13-.93.23-.44.34-.89.34-1.34,0-.38-.07-.71-.18-1-.12-.3-.28-.56-.49-.8-.25-.3-.56-.52-.92-.67-.36-.16-.87-.23-1.54-.25h-4.68v9.54h1.95v-3.74h2.06c.59,0,.99.1,1.2.3.22.21.33.61.34,1.22v.89c.02.29.04.56.1.82.03.14.07.31.13.51h2.08c.12,0,.11,0,.11-.1v-.14c-.2-.12-.31-.3-.37-.54M673.83,78.51c-.22.11-.56.16-1.01.16h-2.26v-2.56h2.32c.43,0,.76.06.97.17.39.2.58.59.58,1.16,0,.54-.2.89-.6,1.08"/><path class="cls-1" d="M672.28,71.19c-4.47,0-8.1,3.63-8.1,8.1s3.63,8.1,8.1,8.1,8.1-3.63,8.1-8.1-3.63-8.1-8.1-8.1M676.78,84.3l-.06.05-.06.05c-1.18,1.01-2.7,1.65-4.38,1.65-3.73,0-6.75-3.02-6.75-6.75s3.02-6.75,6.75-6.75,6.75,3.02,6.75,6.75c0,1.99-.88,3.77-2.26,5"/><path class="cls-1" d="M641.97,115.18v6.33h-1.21v-6.33h-2.29v-.98h5.78v.98h-2.29ZM652.57,121.51v-6.1h-.04l-2.39,6.1h-.76l-2.39-6.1h-.04v6.1h-1.21v-7.3h1.86l2.18,5.55,2.15-5.55h1.84v7.3h-1.21Z"/><path class="cls-1" d="M266.99,114.36l5.78,24.91,6.93-24.91h4.49l6.95,24.96,5.78-24.96h4.55l-8.06,30.66h-4.36l-7.08-25.42-7.12,25.42h-4.36l-8.02-30.66h4.51Z"/><path class="cls-1" d="M314.57,123.28c1.48.75,2.61,1.71,3.38,2.89.75,1.13,1.24,2.44,1.49,3.94.22,1.03.33,2.67.33,4.93h-16.26c.07,2.27.6,4.1,1.59,5.47.99,1.37,2.53,2.06,4.62,2.06,1.95,0,3.5-.65,4.66-1.95.65-.75,1.11-1.63,1.38-2.62h3.69c-.1.82-.42,1.74-.97,2.74-.55,1.01-1.16,1.83-1.84,2.47-1.13,1.11-2.53,1.86-4.21,2.25-.9.22-1.91.33-3.04.33-2.77,0-5.11-1.01-7.03-3.04-1.92-2.03-2.88-4.86-2.88-8.51s.97-6.51,2.9-8.75c1.94-2.24,4.47-3.36,7.59-3.36,1.58,0,3.1.37,4.58,1.12ZM315.92,132.06c-.15-1.63-.5-2.93-1.06-3.9-1.02-1.81-2.73-2.71-5.11-2.71-1.71,0-3.15.62-4.31,1.87-1.16,1.25-1.77,2.83-1.84,4.75h12.32Z"/><path class="cls-1" d="M338.09,138.01c.11,1.25.43,2.21.96,2.88.97,1.21,2.64,1.82,5.03,1.82,1.42,0,2.67-.3,3.75-.91,1.08-.6,1.62-1.54,1.62-2.81,0-.96-.43-1.69-1.29-2.19-.55-.31-1.64-.66-3.27-1.06l-3.03-.75c-1.94-.47-3.37-1-4.28-1.59-1.64-1.02-2.46-2.42-2.46-4.22,0-2.11.77-3.83,2.32-5.13,1.54-1.31,3.62-1.96,6.23-1.96,3.41,0,5.87.99,7.38,2.96.95,1.25,1.4,2.6,1.38,4.05h-3.55c-.07-.84-.38-1.61-.92-2.3-.88-.98-2.41-1.47-4.59-1.47-1.45,0-2.55.27-3.3.81-.75.54-1.12,1.26-1.12,2.14,0,.97.49,1.75,1.47,2.33.57.35,1.4.65,2.51.92l2.53.61c2.75.65,4.59,1.29,5.53,1.9,1.46.96,2.19,2.47,2.19,4.53s-.76,3.71-2.29,5.16c-1.53,1.45-3.86,2.17-6.98,2.17-3.37,0-5.75-.75-7.15-2.27-1.4-1.51-2.15-3.38-2.25-5.6h3.61Z"/><path class="cls-1" d="M355.94,114.25h3.76v11.44c.89-1.13,1.69-1.92,2.4-2.38,1.21-.79,2.72-1.19,4.53-1.19,3.24,0,5.44,1.13,6.6,3.4.63,1.24.94,2.96.94,5.16v14.34h-3.86v-14.09c0-1.64-.21-2.85-.63-3.61-.68-1.22-1.96-1.84-3.84-1.84-1.56,0-2.97.54-4.24,1.61-1.27,1.07-1.9,3.1-1.9,6.07v11.86h-3.76v-30.77Z"/><path class="cls-1" d="M389.42,131.49c.86-.11,1.44-.47,1.73-1.08.17-.33.25-.82.25-1.45,0-1.28-.46-2.22-1.36-2.8-.91-.58-2.21-.87-3.91-.87-1.96,0-3.35.53-4.17,1.59-.46.59-.76,1.46-.9,2.62h-3.51c.07-2.76.96-4.69,2.68-5.77,1.72-1.08,3.71-1.62,5.97-1.62,2.63,0,4.76.5,6.4,1.5,1.63,1,2.44,2.56,2.44,4.68v12.88c0,.39.08.7.24.94.16.24.5.35,1.01.35.17,0,.36,0,.56-.03s.43-.05.67-.09v2.78c-.58.17-1.03.27-1.34.31-.31.04-.72.06-1.25.06-1.29,0-2.23-.46-2.82-1.38-.31-.49-.52-1.18-.65-2.07-.77,1-1.86,1.87-3.3,2.61-1.43.74-3.01,1.11-4.74,1.11-2.07,0-3.77-.63-5.08-1.89-1.31-1.26-1.97-2.83-1.97-4.72,0-2.07.65-3.68,1.94-4.82,1.29-1.14,2.99-1.84,5.09-2.11l5.99-.75ZM381.51,141.64c.79.63,1.73.94,2.82.94,1.32,0,2.6-.31,3.84-.92,2.09-1.01,3.13-2.67,3.13-4.98v-3.02c-.46.29-1.05.54-1.77.73-.72.2-1.43.33-2.13.42l-2.27.29c-1.36.18-2.38.47-3.07.85-1.16.65-1.74,1.69-1.74,3.12,0,1.08.4,1.94,1.19,2.56Z"/><path class="cls-1" d="M399.62,122.77h3.67v2.96c.75-1.02,1.58-1.8,2.47-2.36,1.27-.84,2.76-1.25,4.48-1.25,2.54,0,4.7.97,6.47,2.91,1.77,1.94,2.66,4.71,2.66,8.32,0,4.87-1.28,8.35-3.83,10.44-1.62,1.32-3.51,1.98-5.66,1.98-1.69,0-3.11-.37-4.25-1.11-.67-.42-1.42-1.13-2.24-2.15v11.42h-3.76v-31.16ZM413.75,140.29c1.17-1.47,1.75-3.66,1.75-6.58,0-1.78-.26-3.31-.77-4.59-.98-2.46-2.77-3.69-5.36-3.69s-4.4,1.3-5.36,3.9c-.52,1.39-.77,3.16-.77,5.3,0,1.73.26,3.19.77,4.4.98,2.31,2.76,3.46,5.36,3.46,1.76,0,3.22-.73,4.39-2.2Z"/><path class="cls-1" d="M436.23,123.28c1.48.75,2.61,1.71,3.38,2.89.75,1.13,1.24,2.44,1.49,3.94.22,1.03.33,2.67.33,4.93h-16.26c.07,2.27.6,4.1,1.59,5.47.99,1.37,2.53,2.06,4.62,2.06,1.95,0,3.5-.65,4.66-1.95.65-.75,1.11-1.63,1.38-2.62h3.69c-.1.82-.42,1.74-.97,2.74-.55,1.01-1.16,1.83-1.84,2.47-1.13,1.11-2.53,1.86-4.21,2.25-.9.22-1.91.33-3.04.33-2.77,0-5.11-1.01-7.03-3.04-1.92-2.03-2.88-4.86-2.88-8.51s.97-6.51,2.9-8.75c1.94-2.24,4.47-3.36,7.59-3.36,1.58,0,3.1.37,4.58,1.12ZM437.58,132.06c-.15-1.63-.5-2.93-1.06-3.9-1.02-1.81-2.73-2.71-5.11-2.71-1.71,0-3.15.62-4.31,1.87-1.16,1.25-1.77,2.83-1.84,4.75h12.32Z"/><path class="cls-1" d="M471.48,122.66h4.15c-.53,1.43-1.7,4.71-3.53,9.82-1.36,3.84-2.5,6.98-3.42,9.4-2.17,5.7-3.7,9.18-4.59,10.43-.89,1.25-2.42,1.88-4.59,1.88-.53,0-.93-.02-1.22-.06-.28-.04-.64-.12-1.05-.23v-3.42c.65.18,1.13.29,1.42.33.29.04.55.06.77.06.69,0,1.2-.12,1.53-.34.33-.23.6-.51.82-.84.07-.11.32-.68.75-1.71.43-1.03.74-1.79.94-2.29l-8.27-23.01h4.26l5.99,18.21,6.03-18.21Z"/><path class="cls-1" d="M492.8,124.9c1.98,1.92,2.96,4.74,2.96,8.47s-.87,6.58-2.61,8.93c-1.74,2.35-4.44,3.52-8.1,3.52-3.05,0-5.48-1.04-7.28-3.12-1.8-2.08-2.69-4.87-2.69-8.37,0-3.75.95-6.74,2.84-8.97,1.89-2.22,4.44-3.34,7.63-3.34,2.86,0,5.28.96,7.25,2.88ZM490.47,139.75c.91-1.88,1.37-3.98,1.37-6.29,0-2.08-.33-3.78-.99-5.09-1.05-2.06-2.85-3.09-5.41-3.09-2.27,0-3.92.88-4.95,2.63-1.03,1.75-1.55,3.86-1.55,6.34s.52,4.36,1.55,5.94c1.03,1.58,2.67,2.38,4.91,2.38,2.46,0,4.15-.94,5.07-2.82Z"/><path class="cls-1" d="M501.85,122.66v14.84c0,1.14.18,2.07.53,2.8.65,1.34,1.86,2,3.64,2,2.55,0,4.28-1.17,5.2-3.51.5-1.25.75-2.97.75-5.16v-10.98h3.76v22.36h-3.55l.04-3.3c-.48.85-1.07,1.57-1.78,2.15-1.41,1.17-3.11,1.75-5.12,1.75-3.13,0-5.26-1.06-6.39-3.19-.61-1.14-.92-2.66-.92-4.57v-15.2h3.84Z"/><path class="cls-1" d="M519.69,122.66h3.57v3.86c.29-.75,1.01-1.67,2.15-2.75,1.14-1.08,2.46-1.62,3.94-1.62.07,0,.19,0,.36.02s.45.04.86.08v3.97c-.22-.04-.43-.07-.62-.08-.19-.01-.39-.02-.62-.02-1.89,0-3.35.61-4.36,1.83-1.02,1.22-1.52,2.62-1.52,4.21v12.86h-3.76v-22.36Z"/><path class="cls-1" d="M543.13,114.36h3.82v4.26h-3.82v-4.26ZM543.13,122.77h3.82v22.25h-3.82v-22.25Z"/><path class="cls-1" d="M563.63,123.35c.67.42,1.42,1.15,2.27,2.19v-11.29h3.61v30.77h-3.38v-3.11c-.87,1.38-1.91,2.37-3.1,2.98-1.19.61-2.56.92-4.1.92-2.48,0-4.63-1.05-6.45-3.14-1.82-2.09-2.72-4.88-2.72-8.36,0-3.26.83-6.08,2.48-8.46,1.66-2.39,4.02-3.58,7.1-3.58,1.71,0,3.13.36,4.28,1.09ZM555.25,140.11c1.01,1.61,2.63,2.42,4.86,2.42,1.73,0,3.15-.75,4.27-2.24,1.11-1.5,1.67-3.64,1.67-6.44s-.57-4.92-1.72-6.27c-1.15-1.36-2.57-2.03-4.26-2.03-1.88,0-3.41.72-4.58,2.17-1.17,1.45-1.76,3.58-1.76,6.39,0,2.39.51,4.4,1.52,6.01Z"/><path class="cls-1" d="M587.65,123.28c1.48.75,2.61,1.71,3.38,2.89.75,1.13,1.24,2.44,1.49,3.94.22,1.03.33,2.67.33,4.93h-16.26c.07,2.27.6,4.1,1.59,5.47.99,1.37,2.53,2.06,4.62,2.06,1.95,0,3.5-.65,4.66-1.95.65-.75,1.11-1.63,1.38-2.62h3.69c-.1.82-.42,1.74-.97,2.74-.55,1.01-1.16,1.83-1.84,2.47-1.13,1.11-2.53,1.86-4.21,2.25-.9.22-1.91.33-3.05.33-2.77,0-5.11-1.01-7.03-3.04-1.92-2.03-2.88-4.86-2.88-8.51s.97-6.51,2.9-8.75c1.94-2.24,4.47-3.36,7.59-3.36,1.58,0,3.1.37,4.58,1.12ZM589,132.06c-.15-1.63-.5-2.93-1.06-3.9-1.02-1.81-2.73-2.71-5.11-2.71-1.71,0-3.15.62-4.31,1.87-1.16,1.25-1.77,2.83-1.84,4.75h12.32Z"/><path class="cls-1" d="M608.32,131.49c.86-.11,1.44-.47,1.73-1.08.17-.33.25-.82.25-1.45,0-1.28-.46-2.22-1.36-2.8-.91-.58-2.21-.87-3.91-.87-1.96,0-3.35.53-4.17,1.59-.46.59-.76,1.46-.9,2.62h-3.51c.07-2.76.96-4.69,2.68-5.77,1.72-1.08,3.71-1.62,5.97-1.62,2.63,0,4.76.5,6.4,1.5,1.63,1,2.44,2.56,2.44,4.68v12.88c0,.39.08.7.24.94.16.24.5.35,1.01.35.17,0,.36,0,.56-.03.21-.02.43-.05.67-.09v2.78c-.58.17-1.03.27-1.34.31-.31.04-.72.06-1.25.06-1.29,0-2.23-.46-2.82-1.38-.31-.49-.52-1.18-.65-2.07-.77,1-1.86,1.87-3.3,2.61-1.43.74-3.01,1.11-4.74,1.11-2.07,0-3.77-.63-5.08-1.89-1.31-1.26-1.97-2.83-1.97-4.72,0-2.07.65-3.68,1.94-4.82,1.29-1.14,2.99-1.84,5.09-2.11l5.99-.75ZM600.41,141.64c.79.63,1.73.94,2.82.94,1.32,0,2.6-.31,3.84-.92,2.09-1.01,3.13-2.67,3.13-4.98v-3.02c-.46.29-1.05.54-1.77.73-.72.2-1.43.33-2.13.42l-2.27.29c-1.36.18-2.38.47-3.07.85-1.16.65-1.74,1.69-1.74,3.12,0,1.08.4,1.94,1.19,2.56Z"/><path class="cls-1" d="M621.06,138.01c.11,1.25.43,2.21.96,2.88.97,1.21,2.64,1.82,5.03,1.82,1.42,0,2.67-.3,3.75-.91,1.08-.6,1.62-1.54,1.62-2.81,0-.96-.43-1.69-1.29-2.19-.55-.31-1.64-.66-3.27-1.06l-3.03-.75c-1.94-.47-3.37-1-4.28-1.59-1.64-1.02-2.46-2.42-2.46-4.22,0-2.11.77-3.83,2.32-5.13,1.54-1.31,3.62-1.96,6.23-1.96,3.41,0,5.87.99,7.38,2.96.95,1.25,1.4,2.6,1.38,4.05h-3.55c-.07-.84-.38-1.61-.92-2.3-.88-.98-2.41-1.47-4.59-1.47-1.45,0-2.55.27-3.3.81-.75.54-1.12,1.26-1.12,2.14,0,.97.49,1.75,1.47,2.33.57.35,1.4.65,2.51.92l2.53.61c2.75.65,4.59,1.29,5.53,1.9,1.46.96,2.19,2.47,2.19,4.53s-.76,3.71-2.29,5.16c-1.53,1.45-3.86,2.17-6.98,2.17-3.37,0-5.75-.75-7.15-2.27-1.4-1.51-2.15-3.38-2.25-5.6h3.61Z"/><path class="cls-1" d="M639.82,140.47h4.36v4.55h-4.36v-4.55Z"/></g></svg>