<?xml version="1.0" encoding="utf-8"?>
<!-- Generator: Adobe Illustrator 16.0.0, SVG Export Plug-In . SVG Version: 6.00 Build 0)  -->
<!DOCTYPE svg PUBLIC "-//W3C//DTD SVG 1.1//EN" "http://www.w3.org/Graphics/SVG/1.1/DTD/svg11.dtd">
<svg version="1.1" id="レイヤー_1" xmlns="http://www.w3.org/2000/svg" xmlns:xlink="http://www.w3.org/1999/xlink" x="0px"
	 y="0px" width="198.342px" height="53.753px" viewBox="0 0 198.342 53.753" enable-background="new 0 0 198.342 53.753"
	 xml:space="preserve">
<polygon fill="#F08300" points="0,2.145 28.271,2.145 28.271,9.163 18.223,9.163 18.223,35.663 10.049,35.663 10.049,9.163 0,9.163 
	"/>
<polygon fill="#F08300" points="28.203,35.663 18.121,35.663 38.455,0 43.463,8.823 "/>
<polygon fill="#F08300" points="42.543,38.286 34.367,38.286 34.367,26.602 43.973,9.707 58.723,35.663 48.641,35.663 
	42.543,25.036 "/>
<polygon fill="#F08300" points="83.178,35.663 73.096,35.663 93.432,0 98.439,8.823 "/>
<polygon fill="#F08300" points="97.52,38.286 89.343,38.286 89.343,26.602 98.95,9.707 113.699,35.663 103.615,35.663 97.52,25.036 
	"/>
<polygon fill="#F08300" points="147.08,35.663 136.996,35.663 157.332,0 162.34,8.823 "/>
<polygon fill="#F08300" points="161.42,38.286 153.244,38.286 153.244,26.602 162.85,9.707 177.6,35.663 167.516,35.663 
	161.42,25.036 "/>
<polygon fill="#F08300" points="63.15,19.893 63.15,35.663 54.941,35.663 54.941,2.145 63.184,2.145 63.184,16.145 71.089,2.145 
	81.17,2.145 72.143,18.086 77.115,26.84 72.074,35.663 "/>
<polygon fill="#F08300" points="118.023,20.165 118.023,35.663 109.85,35.663 109.85,2.145 116.969,2.145 126.539,18.974 
	121.941,27.045 "/>
<polygon fill="#F08300" points="122.453,27.93 137.099,2.145 144.183,2.145 144.183,21.287 136.01,35.663 136.01,20.336 
	127.051,36.071 "/>
<polygon fill="#F08300" points="183.287,28.579 195.072,28.579 195.072,35.663 169.424,35.663 184.582,9.162 166.391,9.162 
	170.377,2.145 198.342,2.145 "/>
<polygon points="27.496,43.187 27.496,41.8 26.109,41.8 26.109,40.415 22.529,40.415 22.529,41.8 20.566,41.8 20.566,43.187 
	22.529,43.187 22.529,45.038 19.873,51.271 22.529,51.271 22.529,53.581 26.109,53.581 26.109,47.555 27.496,48.729 27.496,46.421 
	26.109,44.833 26.109,43.187 "/>
<polygon points="38.812,46.65 35.581,40.415 28.188,40.415 28.188,41.8 33.284,41.8 35.35,46.65 "/>
<polygon points="29.604,42.521 32.835,42.521 30.988,46.448 27.986,46.448 "/>
<polygon points="12.252,41.106 12.252,40.415 7.285,40.415 7.285,41.106 0.475,41.106 0.475,42.492 19.18,42.492 19.18,41.106 "/>
<polygon points="19.064,47.345 0.473,47.345 0.473,53.581 3.936,53.581 3.936,48.035 15.628,48.035 15.628,53.581 19.093,53.581 
	19.093,47.345 "/>
<path d="M3.244,46.65H16.41v-3.464H3.244V46.65z M12.367,45.495H7.285v-1.039h5.082V45.495z"/>
<path d="M4.744,53.581h9.701v-4.852H4.744V53.581z M11.097,52.194H8.095v-2.08h3.002V52.194z"/>
<polygon points="38.756,53.608 37.457,49.249 34.598,49.249 35.539,52.802 32.035,52.802 35.318,47.021 31.586,47.025 27.66,53.608 
	"/>
<polygon points="126.293,43.216 126.293,41.829 124.908,41.829 124.908,40.442 121.328,40.442 121.328,41.829 119.365,41.829 
	119.365,43.216 121.328,43.216 121.328,53.608 124.908,53.608 124.908,47.584 126.293,48.759 126.293,46.447 124.908,44.866 
	124.908,43.216 "/>
<polygon points="121.328,51.3 121.328,45.063 118.672,51.3 "/>
<polygon points="52.982,45.242 51.468,45.242 52.597,43.288 50.806,43.288 52.509,40.334 49.081,40.334 47.173,43.638 
	48.964,43.638 47.261,46.591 50.695,46.584 52.982,46.584 "/>
<path d="M58.85,48.729h-2.143l-0.336-0.779h2.307v-2.729h-1.004l1.115-1.935H57l1.703-2.954h-3.429l-1.906,3.307h1.789l-1.686,2.924
	h-0.338l0.336,0.781h-6.441v6.264h3.334v-4.062l0.736,1.823l2.684,0.017l-2.034,2.223h2.815l1.076-1.223l0.527,1.223h2.641
	l-1.395-3.242L58.85,48.729z M55.787,46.591h0.768v0.754h-0.443L55.787,46.591z M53.891,51.265l-0.98-2.354l-2.549-0.007V47.95
	h3.369l1.021,2.373L53.891,51.265z"/>
<rect x="76" y="40.371" width="3.377" height="1.342"/>
<polygon points="77.932,48.015 79.075,46.563 77.424,46.563 76.296,43.358 79.419,43.358 79.419,41.888 75.782,41.888 
	75.264,40.414 71.712,40.414 72.229,41.888 67.555,41.888 67.555,43.358 72.746,43.358 74.755,49.078 72.88,51.144 72.88,44.138 
	70.585,44.138 70.585,44.142 68.421,44.138 66.732,53.608 68.984,53.614 70.585,44.628 70.585,53.608 73.532,53.608 75.477,51.136 
	76.346,53.608 79.896,53.608 "/>
<polygon points="98.172,41.771 98.172,40.386 80.85,40.386 80.85,41.771 87.838,41.771 87.838,52.194 80.85,52.194 80.85,53.581 
	98.172,53.581 98.172,52.194 91.244,52.194 91.244,41.771 "/>
<path d="M114.924,53.577l3.936-0.025l-2.496-2.715h1.936v-1.385h-7.105v-0.824h7.105v-1.387h-7.105v-1.271h7.105v-1.384h-2.84
	l0.84-1.387h2v-1.387h-1.164l0.873-1.442h-3.811l-0.873,1.442h-0.65l-0.268-1.5h-2.656l-0.25,1.5h-0.756l-0.264-1.5h-2.656
	l-0.25,1.5h-0.553l-0.873-1.442h-3.811l0.873,1.442h-0.93V43.2h1.768l0.838,1.387h-2.605v1.384h6.898v1.271h-6.898v1.387h6.898
	v0.824h-6.898v1.385h1.824l-2.432,2.715l3.848,0.025l2.52-2.74h1.139v2.758h4.014v-2.758h1.275L114.924,53.577z M105.859,43.2h6.627
	l-0.838,1.387h-4.951L105.859,43.2z"/>
<polygon points="139.574,53.536 137.607,46.477 138.996,46.477 138.996,45.149 134.594,45.149 134.594,43.245 139.098,43.229 
	139.098,41.8 134.594,41.837 134.594,40.356 131.086,40.356 131.086,41.817 129.932,41.813 129.932,40.356 127.679,40.356 
	126.756,43.245 131.086,43.245 131.086,45.149 126.697,45.149 126.697,46.477 128.033,46.477 126.193,53.595 129.27,53.595 
	131.086,47.061 131.086,53.595 134.594,53.595 134.594,46.79 136.342,53.536 "/>
<polygon points="150.258,46.478 150.258,45.149 140.441,45.149 140.441,46.478 142.461,46.478 142.461,51.731 140.441,51.731 
	140.441,53.521 150.027,53.521 150.027,51.731 146.736,51.731 146.736,46.478 "/>
<polygon points="159.092,41.742 154.273,41.742 153.768,40.399 149.32,40.399 149.824,41.742 140.383,41.742 140.383,43.187 
	150.367,43.187 154.285,53.595 158.73,53.595 154.814,43.187 159.092,43.187 "/>
<rect x="154.979" y="40.399" width="4.113" height="1.17"/>
<rect x="159.785" y="45.149" width="17.322" height="1.328"/>
<polygon points="159.727,44.774 163.869,44.774 168.424,40.399 164.496,40.399 "/>
<polygon points="172.365,40.399 168.439,40.399 172.965,44.774 177.051,44.774 "/>
<polygon points="177.15,53.667 173.57,49.305 168.85,49.305 171.742,52.829 164.479,52.829 167.941,48.555 177.107,48.555 
	177.107,47.228 159.785,47.228 159.785,48.555 163.855,48.555 159.727,53.653 "/>
<polygon points="192.15,52.194 192.15,43.271 195.701,43.271 195.701,41.885 192.15,41.885 192.15,40.356 188.078,40.356 
	188.078,41.885 184.613,41.885 184.613,43.271 188.078,43.271 188.078,52.194 184.701,52.194 184.701,53.581 195.787,53.581 
	195.787,52.194 "/>
<polygon points="184.174,46.338 182.848,44.771 184.182,41.626 183.143,41.636 183.143,40.356 179.938,40.356 179.938,41.713 
	177.771,41.713 177.771,43.706 179.93,43.706 176.58,51.603 179.59,51.593 179.59,53.753 182.883,53.753 182.889,48.241 
	184.174,49.575 "/>
<polygon points="46.895,43.187 46.895,41.8 45.507,41.8 45.507,40.415 41.928,40.415 41.928,41.8 39.964,41.8 39.964,43.187 
	41.928,43.187 41.928,45.038 39.271,51.271 41.928,51.271 41.928,53.581 45.507,53.581 45.507,47.555 46.895,48.729 46.895,46.421 
	45.507,44.833 45.507,43.187 "/>
<polygon points="67.162,43.187 67.162,41.8 65.775,41.8 65.775,40.415 62.195,40.415 62.195,41.8 60.232,41.8 60.232,43.187 
	62.195,43.187 62.195,45.038 59.539,51.271 62.195,51.271 62.195,53.581 65.775,53.581 65.775,47.555 67.162,48.729 67.162,46.421 
	65.775,44.833 65.775,43.187 "/>
<rect x="67.167" y="46.217" width="6.564" height="1.402"/>
</svg>
